<mxfile host="app.diagrams.net" modified="2021-11-03T16:53:53.930Z" agent="5.0 (Windows NT 10.0; Win64; x64) AppleWebKit/537.36 (KHTML, like Gecko) Chrome/95.0.4638.54 Safari/537.36 Edg/95.0.1020.30" etag="EqyAiIusWVc6lRFuP06_" version="15.3.8" type="github">
  <diagram id="HWF6cFD_o7p9VQBaK8Nd" name="Page-1">
    <mxGraphModel dx="1422" dy="1677" grid="1" gridSize="10" guides="1" tooltips="1" connect="1" arrows="1" fold="1" page="1" pageScale="1" pageWidth="1169" pageHeight="827" background="#949494" math="0" shadow="0">
      <root>
        <mxCell id="0" />
        <mxCell id="1" parent="0" />
        <mxCell id="32pcUigWsBj-OOpQZ1Kn-11" style="edgeStyle=orthogonalEdgeStyle;rounded=0;orthogonalLoop=1;jettySize=auto;html=1;strokeColor=#FFFFFF;" parent="1" source="32pcUigWsBj-OOpQZ1Kn-1" target="32pcUigWsBj-OOpQZ1Kn-3" edge="1">
          <mxGeometry relative="1" as="geometry">
            <Array as="points">
              <mxPoint x="719" y="20" />
              <mxPoint x="508" y="20" />
            </Array>
          </mxGeometry>
        </mxCell>
        <mxCell id="32pcUigWsBj-OOpQZ1Kn-12" style="edgeStyle=orthogonalEdgeStyle;rounded=0;orthogonalLoop=1;jettySize=auto;html=1;strokeColor=#FFFFFF;" parent="1" source="32pcUigWsBj-OOpQZ1Kn-1" target="32pcUigWsBj-OOpQZ1Kn-2" edge="1">
          <mxGeometry relative="1" as="geometry">
            <mxPoint x="649" y="94" as="targetPoint" />
            <Array as="points">
              <mxPoint x="719" y="103" />
            </Array>
          </mxGeometry>
        </mxCell>
        <mxCell id="q12cR9YonJrgc3rlI6Qn-10" style="edgeStyle=orthogonalEdgeStyle;rounded=0;orthogonalLoop=1;jettySize=auto;html=1;entryX=0;entryY=0.5;entryDx=0;entryDy=0;entryPerimeter=0;fontColor=#FFFFFF;startArrow=classic;startFill=1;strokeColor=#FFFFFF;exitX=0.99;exitY=0.536;exitDx=0;exitDy=0;exitPerimeter=0;" edge="1" parent="1" source="32pcUigWsBj-OOpQZ1Kn-1" target="q12cR9YonJrgc3rlI6Qn-2">
          <mxGeometry relative="1" as="geometry">
            <mxPoint x="725" y="218" as="sourcePoint" />
            <Array as="points">
              <mxPoint x="773" y="220" />
              <mxPoint x="773" y="55" />
            </Array>
          </mxGeometry>
        </mxCell>
        <mxCell id="32pcUigWsBj-OOpQZ1Kn-1" value="&amp;nbsp;BLOOM FILTERS" style="aspect=fixed;html=1;points=[];align=left;image;fontSize=12;image=img/lib/mscae/Cache_Redis_Product.svg;labelPosition=right;verticalLabelPosition=bottom;verticalAlign=top;labelBackgroundColor=none;fontColor=#FFFFFF;" parent="1" vertex="1">
          <mxGeometry x="694" y="197" width="50" height="42" as="geometry" />
        </mxCell>
        <mxCell id="aqjGa1b1h-gu6OBOAQX7-2" style="edgeStyle=orthogonalEdgeStyle;rounded=0;orthogonalLoop=1;jettySize=auto;html=1;strokeColor=#FFFFFF;" parent="1" source="32pcUigWsBj-OOpQZ1Kn-2" target="32pcUigWsBj-OOpQZ1Kn-5" edge="1">
          <mxGeometry relative="1" as="geometry">
            <Array as="points">
              <mxPoint x="550" y="103" />
              <mxPoint x="550" y="120" />
            </Array>
          </mxGeometry>
        </mxCell>
        <mxCell id="32pcUigWsBj-OOpQZ1Kn-2" value="HOME WORKERS" style="aspect=fixed;html=1;points=[];align=center;image;fontSize=12;image=img/lib/mscae/Docker.svg;labelPosition=center;verticalLabelPosition=top;verticalAlign=bottom;labelBackgroundColor=none;fontColor=#FFFFFF;noLabel=0;direction=east;" parent="1" vertex="1">
          <mxGeometry x="600" y="82" width="50" height="41" as="geometry" />
        </mxCell>
        <mxCell id="32pcUigWsBj-OOpQZ1Kn-7" style="edgeStyle=orthogonalEdgeStyle;rounded=0;orthogonalLoop=1;jettySize=auto;html=1;strokeColor=#FFFFFF;" parent="1" source="32pcUigWsBj-OOpQZ1Kn-3" target="32pcUigWsBj-OOpQZ1Kn-5" edge="1">
          <mxGeometry relative="1" as="geometry" />
        </mxCell>
        <mxCell id="32pcUigWsBj-OOpQZ1Kn-3" value="SINGLE CPU WORKERS SWARMS&amp;nbsp;&lt;br&gt;MULTICPU WORKER DC NODES&amp;nbsp;&lt;br&gt;VM OR BARE METAL&amp;nbsp;" style="pointerEvents=1;shadow=0;dashed=0;html=1;strokeColor=none;fillColor=#505050;labelPosition=left;verticalLabelPosition=middle;verticalAlign=middle;outlineConnect=0;align=right;shape=mxgraph.office.servers.server_farm;fillColor=#7FBA42;fontColor=#FFFFFF;" parent="1" vertex="1">
          <mxGeometry x="480" y="30" width="56" height="49" as="geometry" />
        </mxCell>
        <mxCell id="32pcUigWsBj-OOpQZ1Kn-15" style="edgeStyle=orthogonalEdgeStyle;rounded=0;orthogonalLoop=1;jettySize=auto;html=1;strokeColor=#FFFFFF;" parent="1" source="32pcUigWsBj-OOpQZ1Kn-4" target="32pcUigWsBj-OOpQZ1Kn-14" edge="1">
          <mxGeometry relative="1" as="geometry" />
        </mxCell>
        <mxCell id="aqjGa1b1h-gu6OBOAQX7-8" style="edgeStyle=orthogonalEdgeStyle;rounded=0;orthogonalLoop=1;jettySize=auto;html=1;fontColor=#FFFFFF;strokeColor=#FFFFFF;" parent="1" source="32pcUigWsBj-OOpQZ1Kn-4" edge="1">
          <mxGeometry relative="1" as="geometry">
            <mxPoint x="720" y="240" as="targetPoint" />
          </mxGeometry>
        </mxCell>
        <mxCell id="32pcUigWsBj-OOpQZ1Kn-4" value="MAIN STAGING&amp;nbsp;" style="pointerEvents=1;shadow=0;dashed=0;html=1;strokeColor=none;labelPosition=left;verticalLabelPosition=middle;verticalAlign=middle;outlineConnect=0;align=right;shape=mxgraph.office.servers.server_generic;fillColor=#2072B8;fontColor=#FFFFFF;" parent="1" vertex="1">
          <mxGeometry x="494.5" y="280" width="27" height="52" as="geometry" />
        </mxCell>
        <mxCell id="32pcUigWsBj-OOpQZ1Kn-8" style="edgeStyle=orthogonalEdgeStyle;rounded=0;orthogonalLoop=1;jettySize=auto;html=1;strokeColor=#FFFFFF;" parent="1" source="32pcUigWsBj-OOpQZ1Kn-5" target="32pcUigWsBj-OOpQZ1Kn-6" edge="1">
          <mxGeometry relative="1" as="geometry" />
        </mxCell>
        <mxCell id="32pcUigWsBj-OOpQZ1Kn-5" value="DL STAGING&amp;nbsp;" style="pointerEvents=1;shadow=0;dashed=0;html=1;strokeColor=none;labelPosition=left;verticalLabelPosition=middle;verticalAlign=middle;outlineConnect=0;align=right;shape=mxgraph.office.servers.server_generic;fillColor=#DA4026;fontColor=#FFFFFF;" parent="1" vertex="1">
          <mxGeometry x="495" y="111" width="27" height="52" as="geometry" />
        </mxCell>
        <mxCell id="32pcUigWsBj-OOpQZ1Kn-9" style="edgeStyle=orthogonalEdgeStyle;rounded=0;orthogonalLoop=1;jettySize=auto;html=1;strokeColor=#FFFFFF;" parent="1" source="32pcUigWsBj-OOpQZ1Kn-6" target="32pcUigWsBj-OOpQZ1Kn-4" edge="1">
          <mxGeometry relative="1" as="geometry" />
        </mxCell>
        <mxCell id="q12cR9YonJrgc3rlI6Qn-9" style="edgeStyle=orthogonalEdgeStyle;rounded=0;orthogonalLoop=1;jettySize=auto;html=1;startArrow=classic;startFill=1;strokeColor=#FFFFFF;" edge="1" parent="1" target="q12cR9YonJrgc3rlI6Qn-1">
          <mxGeometry relative="1" as="geometry">
            <mxPoint x="540" y="240" as="sourcePoint" />
            <Array as="points">
              <mxPoint x="540" y="280" />
              <mxPoint x="950" y="280" />
              <mxPoint x="950" y="137" />
            </Array>
          </mxGeometry>
        </mxCell>
        <mxCell id="32pcUigWsBj-OOpQZ1Kn-6" value="GPU INFERENCE NODES&amp;nbsp;" style="pointerEvents=1;shadow=0;dashed=0;html=1;strokeColor=none;labelPosition=left;verticalLabelPosition=middle;verticalAlign=middle;outlineConnect=0;align=right;shape=mxgraph.office.devices.workstation;fontColor=#FCFCFC;fillColor=#B5B5B5;" parent="1" vertex="1">
          <mxGeometry x="482" y="190" width="53" height="56" as="geometry" />
        </mxCell>
        <mxCell id="32pcUigWsBj-OOpQZ1Kn-18" style="edgeStyle=orthogonalEdgeStyle;rounded=0;orthogonalLoop=1;jettySize=auto;html=1;entryX=0.523;entryY=-0.007;entryDx=0;entryDy=0;entryPerimeter=0;strokeColor=#FFFFFF;" parent="1" source="32pcUigWsBj-OOpQZ1Kn-14" target="32pcUigWsBj-OOpQZ1Kn-17" edge="1">
          <mxGeometry relative="1" as="geometry" />
        </mxCell>
        <mxCell id="32pcUigWsBj-OOpQZ1Kn-14" value="" style="aspect=fixed;html=1;points=[];align=center;image;fontSize=12;image=img/lib/mscae/Discs.svg;" parent="1" vertex="1">
          <mxGeometry x="483" y="386" width="50" height="42" as="geometry" />
        </mxCell>
        <mxCell id="32pcUigWsBj-OOpQZ1Kn-16" value="" style="aspect=fixed;html=1;points=[];align=center;image;fontSize=12;image=img/lib/mscae/Discs.svg;" parent="1" vertex="1">
          <mxGeometry x="483" y="486" width="50" height="42" as="geometry" />
        </mxCell>
        <mxCell id="32pcUigWsBj-OOpQZ1Kn-21" style="edgeStyle=orthogonalEdgeStyle;rounded=0;orthogonalLoop=1;jettySize=auto;html=1;strokeColor=#FFFFFF;" parent="1" source="32pcUigWsBj-OOpQZ1Kn-17" edge="1">
          <mxGeometry relative="1" as="geometry">
            <Array as="points">
              <mxPoint x="719" y="514" />
            </Array>
            <mxPoint x="520" y="514" as="targetPoint" />
          </mxGeometry>
        </mxCell>
        <mxCell id="32pcUigWsBj-OOpQZ1Kn-17" value="&amp;nbsp;IMG2DATASET" style="aspect=fixed;html=1;points=[];align=left;image;fontSize=12;image=img/lib/mscae/Cloud_Service.svg;labelPosition=right;verticalLabelPosition=middle;verticalAlign=middle;labelBackgroundColor=none;fontColor=#FFFFFF;" parent="1" vertex="1">
          <mxGeometry x="694" y="440" width="50" height="42" as="geometry" />
        </mxCell>
        <mxCell id="32pcUigWsBj-OOpQZ1Kn-20" value="STORAGE" style="whiteSpace=wrap;html=1;aspect=fixed;dashed=1;rounded=1;fillColor=none;strokeColor=#FFFFFF;fontColor=#FFFFFF;" parent="1" vertex="1">
          <mxGeometry x="403" y="356" width="210" height="210" as="geometry" />
        </mxCell>
        <mxCell id="aqjGa1b1h-gu6OBOAQX7-3" style="edgeStyle=orthogonalEdgeStyle;rounded=0;orthogonalLoop=1;jettySize=auto;html=1;strokeColor=#FFFFFF;" parent="1" source="aqjGa1b1h-gu6OBOAQX7-1" target="32pcUigWsBj-OOpQZ1Kn-6" edge="1">
          <mxGeometry relative="1" as="geometry" />
        </mxCell>
        <mxCell id="aqjGa1b1h-gu6OBOAQX7-4" style="edgeStyle=orthogonalEdgeStyle;rounded=0;orthogonalLoop=1;jettySize=auto;html=1;strokeColor=#FFFFFF;" parent="1" source="aqjGa1b1h-gu6OBOAQX7-1" target="32pcUigWsBj-OOpQZ1Kn-2" edge="1">
          <mxGeometry relative="1" as="geometry" />
        </mxCell>
        <mxCell id="aqjGa1b1h-gu6OBOAQX7-5" style="edgeStyle=orthogonalEdgeStyle;rounded=0;orthogonalLoop=1;jettySize=auto;html=1;strokeColor=#FFFFFF;" parent="1" source="aqjGa1b1h-gu6OBOAQX7-1" target="32pcUigWsBj-OOpQZ1Kn-3" edge="1">
          <mxGeometry relative="1" as="geometry">
            <Array as="points">
              <mxPoint x="625" y="150" />
              <mxPoint x="570" y="150" />
              <mxPoint x="570" y="55" />
            </Array>
          </mxGeometry>
        </mxCell>
        <mxCell id="aqjGa1b1h-gu6OBOAQX7-7" style="edgeStyle=orthogonalEdgeStyle;rounded=0;orthogonalLoop=1;jettySize=auto;html=1;fontColor=#FFFFFF;strokeColor=#FFFFFF;" parent="1" source="aqjGa1b1h-gu6OBOAQX7-1" target="32pcUigWsBj-OOpQZ1Kn-1" edge="1">
          <mxGeometry relative="1" as="geometry" />
        </mxCell>
        <mxCell id="aqjGa1b1h-gu6OBOAQX7-9" style="edgeStyle=orthogonalEdgeStyle;rounded=0;orthogonalLoop=1;jettySize=auto;html=1;fontColor=#FFFFFF;strokeColor=#FFFFFF;" parent="1" source="aqjGa1b1h-gu6OBOAQX7-1" target="32pcUigWsBj-OOpQZ1Kn-5" edge="1">
          <mxGeometry relative="1" as="geometry">
            <Array as="points">
              <mxPoint x="625" y="150" />
            </Array>
          </mxGeometry>
        </mxCell>
        <mxCell id="q12cR9YonJrgc3rlI6Qn-4" style="edgeStyle=orthogonalEdgeStyle;rounded=0;orthogonalLoop=1;jettySize=auto;html=1;entryX=0.5;entryY=0;entryDx=0;entryDy=0;entryPerimeter=0;strokeColor=#FFFFFF;" edge="1" parent="1" source="aqjGa1b1h-gu6OBOAQX7-1" target="q12cR9YonJrgc3rlI6Qn-2">
          <mxGeometry relative="1" as="geometry">
            <Array as="points">
              <mxPoint x="625" y="160" />
              <mxPoint x="755" y="160" />
              <mxPoint x="755" y="20" />
              <mxPoint x="830" y="20" />
            </Array>
          </mxGeometry>
        </mxCell>
        <mxCell id="aqjGa1b1h-gu6OBOAQX7-1" value="TRACKER" style="pointerEvents=1;shadow=0;dashed=0;html=1;strokeColor=none;labelPosition=center;verticalLabelPosition=bottom;verticalAlign=top;outlineConnect=0;align=center;shape=mxgraph.office.servers.sql_server;fillColor=#FFCE9F;fontColor=#FFFFFF;" parent="1" vertex="1">
          <mxGeometry x="603" y="190" width="43" height="56" as="geometry" />
        </mxCell>
        <mxCell id="q12cR9YonJrgc3rlI6Qn-6" style="edgeStyle=orthogonalEdgeStyle;rounded=0;orthogonalLoop=1;jettySize=auto;html=1;entryX=1;entryY=0.5;entryDx=0;entryDy=0;entryPerimeter=0;strokeColor=#FFFFFF;startArrow=classic;startFill=1;" edge="1" parent="1" source="q12cR9YonJrgc3rlI6Qn-1" target="q12cR9YonJrgc3rlI6Qn-3">
          <mxGeometry relative="1" as="geometry" />
        </mxCell>
        <mxCell id="q12cR9YonJrgc3rlI6Qn-1" value="DATABASE" style="sketch=0;aspect=fixed;html=1;points=[];align=left;image;fontSize=12;image=img/lib/mscae/Azure_Database_for_PostgreSQL_servers.svg;labelBackgroundColor=none;fontColor=#FFFFFF;labelPosition=right;verticalLabelPosition=top;verticalAlign=bottom;" vertex="1" parent="1">
          <mxGeometry x="898" y="112" width="38" height="50" as="geometry" />
        </mxCell>
        <mxCell id="q12cR9YonJrgc3rlI6Qn-5" style="edgeStyle=orthogonalEdgeStyle;rounded=0;orthogonalLoop=1;jettySize=auto;html=1;strokeColor=#FFFFFF;" edge="1" parent="1" source="q12cR9YonJrgc3rlI6Qn-2" target="q12cR9YonJrgc3rlI6Qn-1">
          <mxGeometry relative="1" as="geometry" />
        </mxCell>
        <mxCell id="q12cR9YonJrgc3rlI6Qn-2" value="PREPROCESSORS" style="sketch=0;aspect=fixed;pointerEvents=1;shadow=0;dashed=0;html=1;strokeColor=none;labelPosition=center;verticalLabelPosition=bottom;verticalAlign=top;align=center;fillColor=#00188D;shape=mxgraph.mscae.enterprise.server_farm;fontColor=#FFFFFF;" vertex="1" parent="1">
          <mxGeometry x="805" y="38.5" width="50" height="32" as="geometry" />
        </mxCell>
        <mxCell id="q12cR9YonJrgc3rlI6Qn-8" style="edgeStyle=orthogonalEdgeStyle;rounded=0;orthogonalLoop=1;jettySize=auto;html=1;strokeColor=#FFFFFF;exitX=0.605;exitY=1;exitDx=0;exitDy=0;exitPerimeter=0;" edge="1" parent="1" source="q12cR9YonJrgc3rlI6Qn-1" target="32pcUigWsBj-OOpQZ1Kn-6">
          <mxGeometry relative="1" as="geometry">
            <mxPoint x="1010" y="170" as="sourcePoint" />
            <Array as="points">
              <mxPoint x="921" y="170" />
              <mxPoint x="509" y="170" />
            </Array>
          </mxGeometry>
        </mxCell>
        <mxCell id="q12cR9YonJrgc3rlI6Qn-13" style="edgeStyle=orthogonalEdgeStyle;rounded=0;orthogonalLoop=1;jettySize=auto;html=1;fontColor=#FFFFFF;startArrow=none;startFill=0;strokeColor=#FFFFFF;" edge="1" parent="1" source="q12cR9YonJrgc3rlI6Qn-3" target="q12cR9YonJrgc3rlI6Qn-12">
          <mxGeometry relative="1" as="geometry">
            <Array as="points">
              <mxPoint x="830" y="180" />
              <mxPoint x="917" y="180" />
            </Array>
          </mxGeometry>
        </mxCell>
        <mxCell id="q12cR9YonJrgc3rlI6Qn-3" value="DOWNLOADERS" style="sketch=0;aspect=fixed;pointerEvents=1;shadow=0;dashed=0;html=1;strokeColor=none;labelPosition=center;verticalLabelPosition=top;verticalAlign=bottom;align=center;fillColor=#00188D;shape=mxgraph.mscae.enterprise.server_farm;fontColor=#FFFFFF;" vertex="1" parent="1">
          <mxGeometry x="805" y="121" width="50" height="32" as="geometry" />
        </mxCell>
        <mxCell id="q12cR9YonJrgc3rlI6Qn-14" style="edgeStyle=orthogonalEdgeStyle;rounded=0;orthogonalLoop=1;jettySize=auto;html=1;fontColor=#FFFFFF;startArrow=none;startFill=0;strokeColor=#FFFFFF;" edge="1" parent="1" source="q12cR9YonJrgc3rlI6Qn-12">
          <mxGeometry relative="1" as="geometry">
            <mxPoint x="540" y="250" as="targetPoint" />
            <Array as="points">
              <mxPoint x="920" y="280" />
              <mxPoint x="540" y="280" />
            </Array>
          </mxGeometry>
        </mxCell>
        <mxCell id="q12cR9YonJrgc3rlI6Qn-12" value="DL STAGING 2&amp;nbsp;" style="pointerEvents=1;shadow=0;dashed=0;html=1;strokeColor=none;labelPosition=left;verticalLabelPosition=middle;verticalAlign=middle;outlineConnect=0;align=right;shape=mxgraph.office.servers.server_generic;fillColor=#DA4026;fontColor=#FFFFFF;" vertex="1" parent="1">
          <mxGeometry x="906.5" y="192" width="27" height="52" as="geometry" />
        </mxCell>
        <mxCell id="q12cR9YonJrgc3rlI6Qn-15" value="CLASSIC&lt;br&gt;(2 stages workflow)" style="text;html=1;align=center;verticalAlign=middle;resizable=0;points=[];autosize=1;strokeColor=none;fillColor=none;fontColor=#FFFFFF;" vertex="1" parent="1">
          <mxGeometry x="550" y="-30" width="120" height="30" as="geometry" />
        </mxCell>
        <mxCell id="q12cR9YonJrgc3rlI6Qn-16" value="DATABASE&lt;br&gt;(3 stages workflow)" style="text;html=1;align=center;verticalAlign=middle;resizable=0;points=[];autosize=1;strokeColor=none;fillColor=none;fontColor=#FFFFFF;" vertex="1" parent="1">
          <mxGeometry x="786.5" y="-30" width="120" height="30" as="geometry" />
        </mxCell>
      </root>
    </mxGraphModel>
  </diagram>
</mxfile>
